# Blender v2.79 (sub 0) OBJ File: 'Surface.blend'
# www.blender.org
mtllib Surface.mtl
o Cube
v 10.000000 0.232083 -9.999999
v 10.000000 0.232083 10.000000
v -10.000001 0.232083 9.999998
v -9.999996 0.232083 -10.000004
v 10.000005 0.535819 -9.999994
v 9.999993 0.535819 10.000006
v -10.000004 0.535819 9.999996
v -9.999999 0.535819 -10.000000
vt 0.139437 0.492187
vt 0.377208 0.492187
vt 0.377208 0.729959
vt 0.139437 0.729959
vt 0.852751 0.492187
vt 0.852751 0.729959
vt 0.614979 0.729959
vt 0.614979 0.492187
vt 0.377208 0.254416
vt 0.614979 0.254416
vt 0.614979 0.967730
vt 0.377208 0.967730
vt 0.377208 0.016644
vt 0.614979 0.016644
vn 0.0000 -1.0000 -0.0000
vn 0.0000 1.0000 0.0000
vn 1.0000 0.0000 0.0000
vn -0.0000 -0.0000 1.0000
vn -1.0000 -0.0000 -0.0000
vn 0.0000 0.0000 -1.0000
usemtl Material.001
s off
f 1/1/1 2/2/1 3/3/1 4/4/1
f 5/5/2 8/6/2 7/7/2 6/8/2
f 1/9/3 5/10/3 6/8/3 2/2/3
f 2/2/4 6/8/4 7/7/4 3/3/4
f 3/3/5 7/7/5 8/11/5 4/12/5
f 5/10/6 1/9/6 4/13/6 8/14/6
